<?xml version="1.0" standalone="no"?>
<!DOCTYPE svg PUBLIC "-//W3C//DTD SVG 20010904//EN"
 "http://www.w3.org/TR/2001/REC-SVG-20010904/DTD/svg10.dtd">
<svg version="1.0" xmlns="http://www.w3.org/2000/svg"
 width="980.000000pt" height="980.000000pt" viewBox="0 0 980.000000 980.000000"
 preserveAspectRatio="xMidYMid meet">

<g transform="translate(0.000000,980.000000) scale(0.100000,-0.100000)"
fill="#000000" stroke="none">
<path d="M4745 8034 c-321 -26 -630 -112 -920 -254 -494 -243 -897 -642 -1140
-1129 -52 -105 -105 -227 -105 -243 0 -4 21 -8 46 -8 40 0 45 -2 39 -17 -62
-156 -127 -442 -144 -633 -6 -63 -14 -538 -17 -1055 l-7 -940 22 -44 c32 -62
106 -132 175 -166 46 -23 77 -30 142 -33 75 -4 84 -7 84 -24 0 -11 13 -33 29
-49 l29 -29 150 0 150 0 26 31 26 31 0 853 0 854 -24 28 -24 28 -157 0 -157 0
-24 -28 c-13 -15 -24 -37 -24 -48 0 -16 -7 -19 -50 -19 l-50 0 0 183 c0 429
40 686 150 970 l41 107 53 0 c51 0 53 1 70 38 36 76 113 200 182 292 521 697
1419 980 2249 709 441 -145 826 -449 1078 -851 30 -48 65 -109 78 -137 l24
-51 52 0 51 0 30 -72 c117 -283 162 -554 162 -979 l0 -209 -50 0 c-43 0 -50 3
-50 19 0 11 -11 33 -24 48 -24 28 -25 28 -161 31 -92 3 -147 0 -166 -9 -62
-25 -59 27 -59 -907 l0 -854 29 -29 29 -29 141 0 c81 0 150 5 164 11 24 11 47
47 47 73 0 10 23 15 84 18 64 3 96 10 138 31 78 38 139 96 176 165 l32 60 -4
564 c-3 310 -9 766 -14 1013 -8 394 -12 465 -31 570 -26 147 -60 282 -100 397
l-29 87 48 3 49 3 -53 121 c-351 804 -1077 1356 -1956 1489 -102 15 -435 27
-535 19z"/>
<path d="M2371 4854 c-17 -14 -34 -39 -38 -55 -5 -16 -6 -220 -3 -454 l5 -425
25 -24 c14 -14 42 -28 63 -31 l37 -7 0 511 0 511 -29 0 c-17 0 -42 -11 -60
-26z"/>
<path d="M7402 4373 l3 -508 34 2 c23 1 44 11 65 32 l31 31 3 418 c2 286 0
429 -8 455 -13 43 -58 77 -103 77 l-27 0 2 -507z"/>
</g>
</svg>
