<?xml version="1.0" standalone="no"?>
<!DOCTYPE svg PUBLIC "-//W3C//DTD SVG 20010904//EN"
 "http://www.w3.org/TR/2001/REC-SVG-20010904/DTD/svg10.dtd">
<svg version="1.0" xmlns="http://www.w3.org/2000/svg"
 width="980.000000pt" height="980.000000pt" viewBox="0 0 980.000000 980.000000"
 preserveAspectRatio="xMidYMid meet">

<g transform="translate(0.000000,980.000000) scale(0.100000,-0.100000)"
fill="#000000" stroke="none">
<path d="M4783 6326 c-192 -37 -344 -118 -474 -253 -119 -122 -197 -267 -229
-424 -18 -87 -20 -139 -20 -681 l0 -588 870 0 870 0 0 80 0 80 -338 0 c-370 0
-366 -1 -397 60 -19 36 -19 63 0 99 29 58 50 61 409 61 l326 0 0 115 0 115
-338 0 c-371 0 -366 -1 -398 62 -22 42 -11 90 27 122 l31 26 339 0 339 0 0
115 0 115 -341 0 -341 0 -34 34 c-39 39 -44 77 -18 127 28 56 51 59 399 59
255 0 315 3 315 13 0 26 -49 157 -80 216 -48 89 -152 214 -228 271 -88 67
-228 135 -327 160 -104 27 -268 34 -362 16z"/>
<path d="M3663 4093 c4 -155 10 -250 21 -296 115 -494 480 -866 959 -977 l97
-22 0 -139 0 -139 -255 0 -255 0 0 -110 0 -110 700 0 700 0 0 110 0 110 -255
0 -255 0 0 140 0 139 38 6 c272 46 557 210 739 427 140 168 213 308 270 523
24 91 26 121 31 333 l4 232 -140 0 -140 0 -4 -222 c-5 -205 -7 -230 -32 -311
-65 -216 -214 -425 -389 -545 -72 -50 -197 -109 -293 -139 -83 -25 -101 -27
-269 -27 -206 0 -277 14 -422 83 -269 129 -451 344 -539 636 -25 83 -27 108
-32 308 l-4 217 -140 0 -140 0 5 -227z"/>
<path d="M4063 4058 c23 -398 300 -720 691 -804 93 -20 261 -20 359 1 389 81
687 441 687 831 l0 74 -872 0 -871 0 6 -102z"/>
</g>
</svg>
