<?xml version="1.0" standalone="no"?>
<!DOCTYPE svg PUBLIC "-//W3C//DTD SVG 20010904//EN"
 "http://www.w3.org/TR/2001/REC-SVG-20010904/DTD/svg10.dtd">
<svg version="1.0" xmlns="http://www.w3.org/2000/svg"
 width="200.000000pt" height="200.000000pt" viewBox="0 0 200.000000 200.000000"
 preserveAspectRatio="xMidYMid meet" fill="currentColor">
<g transform="translate(0.000000,200.000000) scale(0.100000,-0.100000)"
 stroke="none" fill="currentColor">
<path d="M1412 1616 c-59 -19 -107 -58 -139 -114 -26 -44 -28 -56 -31 -178
l-4 -132 -27 -5 c-37 -8 -79 -53 -87 -93 l-6 -33 -437 -3 -437 -3 -42 -28
c-55 -36 -85 -95 -85 -167 0 -31 7 -68 16 -86 22 -44 80 -91 124 -103 24 -7
193 -11 449 -11 l412 0 6 -33 c3 -19 20 -47 37 -63 l30 -29 325 0 326 0 29 33
29 32 0 260 0 260 -29 32 -29 33 -257 3 -258 3 5 107 c5 118 17 153 68 195 35
30 84 42 140 34 84 -11 139 -85 140 -184 l0 -53 50 0 50 0 0 53 c0 116 -54
213 -144 259 -52 27 -164 34 -224 14z m-302 -751 l0 -125 -420 0 -420 0 -36
33 c-67 61 -53 160 27 200 30 15 82 17 442 17 l407 0 0 -125z m434 104 c32
-25 35 -70 6 -99 -19 -19 -19 -20 0 -75 l19 -55 -65 0 c-35 0 -64 4 -64 8 0 5
7 29 16 55 15 45 15 48 -5 73 -27 35 -26 59 4 89 30 30 54 31 89 4z"/>
<path d="M360 945 c0 -29 -7 -31 -32 -8 -14 13 -23 15 -35 7 -28 -17 -25 -30
12 -55 l35 -24 -36 -30 c-32 -27 -34 -32 -21 -49 14 -19 15 -19 46 3 l31 22 0
-25 c0 -21 5 -26 25 -26 18 0 25 5 25 20 0 24 8 25 32 4 14 -14 20 -14 33 -4
16 13 21 40 8 40 -5 1 -19 10 -33 21 l-24 21 34 28 c30 24 32 30 21 44 -17 20
-30 20 -53 -1 -17 -15 -18 -15 -18 10 0 22 -5 27 -25 27 -20 0 -25 -5 -25 -25z"/>
<path d="M650 944 c0 -24 -1 -24 -22 -10 -29 21 -44 20 -53 -1 -4 -13 3 -26
25 -45 l32 -26 -31 -23 c-34 -25 -38 -40 -16 -59 13 -11 20 -9 40 10 l25 23 0
-26 c0 -22 5 -27 25 -27 20 0 25 5 25 26 l0 25 27 -20 c25 -20 27 -20 45 -4
19 17 18 18 -17 48 l-37 30 36 26 c33 23 35 27 22 45 -14 18 -15 18 -45 1
l-31 -18 0 25 c0 21 -5 26 -25 26 -20 0 -25 -5 -25 -26z"/>
<path d="M950 945 c0 -29 -7 -31 -32 -8 -14 13 -23 15 -35 7 -28 -17 -25 -30
12 -55 l35 -24 -36 -30 c-32 -27 -34 -32 -21 -49 14 -19 15 -19 46 3 l31 22 0
-25 c0 -21 5 -26 25 -26 18 0 25 5 25 20 0 24 8 25 32 4 14 -14 20 -14 33 -4
16 13 21 40 8 40 -5 1 -19 10 -33 21 l-24 21 34 28 c30 24 32 30 21 44 -17 20
-30 20 -53 -1 -17 -15 -18 -15 -18 10 0 22 -5 27 -25 27 -20 0 -25 -5 -25 -25z"/>
</g>
</svg>
